<svg class="waves-bottom" width="1440" height="100" viewBox="0 0 1440 100" fill="none" xmlns="http://www.w3.org/2000/svg">
    <path d="M1441 0C1441 0.0280582 1441 0.0568495 1441 0.0848439V0Z" fill="#F1ECE3"></path>
    <path d="M1441 56.7611C1440.07 59.3688 1437.98 60.7821 1434.27 61.3336C1433.02 61.5317 1431.77 61.576 1430.53 61.62C1428.04 61.7083 1425.57 61.7956 1423.2 63.12C1420.31 61.5937 1418.94 63.2362 1417.56 64.8889C1417.15 65.3855 1416.73 65.883 1416.27 66.2958C1414.1 64.7079 1411.72 64.3109 1409.15 65.5018C1404.21 67.8837 1398.87 68.8761 1393.13 68.4791C1392.9 68.4636 1392.67 68.4492 1392.45 68.4352C1389.82 68.2697 1387.77 68.1407 1385.22 66.4942C1382.24 64.7034 1378.91 65.2106 1375.52 65.7264C1373.28 66.0681 1371.01 66.4137 1368.8 66.0973C1364.65 62.723 1359.9 63.7154 1355.75 65.1048C1354.64 65.4224 1353.53 65.8035 1352.42 66.1845C1350.76 66.7562 1349.1 67.3279 1347.44 67.6852C1347.31 67.6288 1347.18 67.5706 1347.05 67.5125C1345.79 66.9571 1344.56 66.4086 1343.48 67.4867C1335.81 74.6259 1327.6 72.1624 1319.36 69.6904C1318.9 69.5507 1318.43 69.4111 1317.97 69.2731C1314.21 68.0821 1310.84 68.4791 1307.09 70.2655C1306.63 70.4958 1306.15 70.7677 1305.65 71.0488C1302.73 72.7059 1299.25 74.6779 1296.21 70.2655C1294.25 73.2745 1291.68 72.6397 1289.18 72.02C1287.39 71.5769 1285.63 71.1416 1284.14 72.0519C1281.58 73.5635 1279.82 72.5426 1278.08 71.5314C1277.54 71.2148 1276.99 70.8992 1276.43 70.6625C1276.05 70.6379 1275.67 70.614 1275.29 70.5902C1269.54 70.2294 1263.81 69.8701 1258.43 66.8912C1257.64 66.4942 1256.45 66.2957 1255.66 66.6927C1247.75 69.2731 1242.8 65.3033 1238.25 59.5472C1235.09 55.5774 1231.53 53.1955 1226.38 58.1577C1222.62 61.7305 1215.9 60.3411 1212.73 58.3562C1210.78 57.1774 1208.6 56.4965 1206.44 55.8206C1203.15 54.7894 1199.89 53.7699 1197.5 51.0122C1196.71 50.0197 1194.73 49.8212 1193.74 51.2107C1192.36 53.1955 1189.79 52.6001 1189.39 51.6076C1186.48 45.7641 1182.09 46.7662 1177.62 47.7844C1176.93 47.9421 1176.24 48.1002 1175.55 48.2333C1173.7 48.6614 1172.67 47.5506 1171.65 46.4498C1171.25 46.0195 1170.85 45.5907 1170.4 45.256C1168.82 44.2892 1167.57 42.6256 1166.34 40.9758C1164.02 37.8837 1161.73 34.8399 1157.35 36.5225C1150.67 39.053 1145 37.1185 1139.24 35.1555C1137.32 34.5009 1135.39 33.8431 1133.41 33.3467C1132.07 32.9788 1130.63 32.3646 1129.19 31.7499C1125.97 30.375 1122.74 28.9978 1120.56 30.3694C1113.83 34.7361 1107.5 34.5377 1102.36 30.5679C1100.3 28.9769 1097.86 28.0554 1095.43 27.139C1091.8 25.7689 1088.19 24.4101 1085.94 20.842C1083.96 17.6662 1080.8 16.8722 1077.44 16.2768C1074.96 15.849 1072.45 15.5318 1069.94 15.214C1066.62 14.7946 1063.29 14.374 1060.03 13.6964C1055.68 12.704 1050.34 13.2994 1045 16.4752C1038.27 20.3504 1030.72 22.8764 1023.17 25.404C1020.28 26.372 1017.38 27.3402 1014.53 28.3845C1013.55 28.7815 1011.77 28.98 1011.17 28.3845C1004.64 22.8269 996.535 22.8269 988.82 23.2238C985.38 23.4442 981.886 22.7404 978.397 22.0379C972.459 20.8418 966.537 19.6493 960.93 23.0253C958.531 24.4517 955.973 25.5177 953.417 26.583C950.281 27.8896 947.148 29.1952 944.315 31.1633C941.347 33.3467 937.985 35.1331 934.227 34.5376C923.955 32.7874 916.722 39.8019 911.038 45.3136L910.688 45.653C904.754 51.4091 897.435 52.2031 891.896 52.2031C890.39 52.2031 888.884 52.1791 887.38 52.1553C881.383 52.0601 875.436 51.9656 869.743 53.394C868.461 53.7154 867.043 53.8881 865.594 54.0645C860.78 54.6504 855.636 55.2765 854.116 61.532C852.731 67.0897 849.567 67.6851 845.017 65.8987C840.468 64.1123 836.314 63.5169 831.171 64.7078C823.456 66.6927 815.544 67.0897 811.39 57.3638C810.443 55.1916 808.664 53.3909 806.937 51.6441C806.139 50.8369 805.353 50.0412 804.665 49.2257C801.698 45.8514 796.753 45.4545 794.379 47.0424C791.214 49.0273 788.445 48.4318 786.665 47.2409C783.332 45.1597 779.389 44.2754 775.437 43.3893C768.837 41.9091 762.215 40.4239 758.379 33.3467C757.983 32.7512 756.599 31.9573 755.808 32.1558C751.615 33.1654 748.845 30.7512 746.17 28.4206C745.69 28.0021 745.212 27.5863 744.731 27.1936C741.961 24.8117 738.203 24.0178 735.434 25.0102C731.28 26.3996 727.126 26.0026 723.17 25.6057C721.482 25.506 719.67 25.7314 717.842 25.9587C712.388 26.6371 706.798 27.3323 703.983 19.4525C703.581 18.3764 702.27 18.5765 701.098 18.7555C700.54 18.8407 700.014 18.921 699.631 18.8571C697.689 18.4141 695.904 18.9597 694.119 19.5055C691.904 20.1825 689.689 20.8599 687.17 19.651C681.829 17.0707 676.291 18.0631 670.95 20.048C669.961 20.8419 668.972 20.8419 668.181 19.8495C659.675 7.74173 652.158 7.34475 639.499 15.4828C636.717 17.2594 633.683 18.6393 630.643 20.0222C626.55 21.8839 622.446 23.7509 618.927 26.5981C617.235 28.1269 614.962 26.8936 613.102 25.884C612.789 25.714 612.487 25.5503 612.202 25.4072C609.631 24.0177 607.059 24.6132 605.477 26.0026C602.114 28.583 599.543 29.1784 595.191 27.789C591.433 26.5981 586.29 27.789 582.927 31.5603C577.982 37.5149 570.663 39.3013 563.938 35.3316C558.993 32.5527 554.443 34.1406 551.674 37.118C547.718 41.2862 544.751 39.6983 541.191 37.5149C539.608 33.7437 536.245 32.3542 532.685 31.7588C530.707 31.7588 529.125 31.1633 527.344 30.1709C526.157 29.3769 523.19 27.5905 522.399 31.3618C521.73 31.4229 520.985 31.4088 520.241 31.3947C518.566 31.363 516.891 31.3313 516.069 32.1557C510.69 37.5535 505.833 33.7006 502.313 30.9085C502.079 30.7231 501.852 30.5424 501.63 30.3694C490.384 21.4601 477.957 21.8324 464.742 22.2283L464.641 22.2313C461.797 22.337 459.571 23.7367 457.573 24.9926C455.818 26.0957 454.239 27.0879 452.575 26.9951C445.651 26.3996 441.3 29.5754 436.948 33.3467C435.563 34.5376 434.377 34.9346 432.596 34.7361C425.708 33.7936 421.298 37.9481 417.013 41.9852C415.883 43.0493 414.763 44.1052 413.607 45.0575C413.449 45.1823 413.296 45.3039 413.147 45.4219C410.696 47.3679 409.47 48.341 406.486 46.8438C399.761 43.668 394.222 44.859 389.871 51.6076C384.085 60.5926 375.421 61.2024 366.686 61.8172C362.878 62.0853 359.056 62.3542 355.453 63.3184C354.895 63.4303 354.274 63.1002 353.626 62.7555C353.125 62.4891 352.608 62.214 352.09 62.1274C349.875 61.7738 347.672 61.0728 345.479 60.375C339.057 58.3312 332.716 56.3135 326.376 63.1199C324.596 65.1047 320.442 64.9063 318.068 63.5168C312.53 60.1425 307.189 59.5471 301.452 62.1274C300.266 62.7229 298.485 63.1199 297.299 61.9289C294.923 59.5455 292.379 60.041 289.511 60.5998C289.274 60.646 289.035 60.6926 288.793 60.738C284.046 61.7304 279.694 63.1199 275.54 65.7002C270.991 68.479 266.639 69.8685 264.859 62.3259C264.068 59.3486 262.09 56.7682 259.123 55.1803C252.784 51.8052 245.937 51.3166 239.081 50.8273C235.454 50.5685 231.824 50.3094 228.265 49.6227C228.174 49.6227 228.062 49.6122 227.941 49.6008C227.537 49.5628 227.033 49.5155 226.881 49.8212C222.824 53.8912 217.617 54.5681 212.387 55.248C208.945 55.6954 205.493 56.1441 202.353 57.5622C200.26 58.5314 197.774 58.3175 195.215 58.0972C194.63 58.0468 194.041 57.9961 193.452 57.9592C191.491 57.8235 189.461 57.2705 187.441 56.7202C183.551 55.6602 179.696 54.61 176.441 56.5697C169.211 60.6762 161.417 62.0451 153.642 63.4107C150.143 64.0253 146.648 64.6392 143.21 65.5017C142.258 65.7403 141.252 66.1063 140.215 66.4834C136.077 67.9882 131.459 69.6676 127.979 64.1123C127.781 63.7153 125.803 63.7153 125.407 64.1123C121.198 67.7179 116.083 69.1848 110.975 70.6498C106.241 72.0075 101.513 73.3635 97.5169 76.4185C89.0113 82.3732 78.9233 82.7702 71.8024 77.014C67.2353 73.3087 61.9044 72.7649 56.6539 72.2293C51.2166 71.6746 45.8656 71.1288 41.5384 67.0896C37.083 68.5799 33.6833 66.5611 30.2342 64.513C27.7113 63.0149 25.1619 61.5011 22.1537 61.3334C19.7301 61.1983 17.3753 60.4884 15.0346 59.7828C10.4979 58.4151 6.01433 57.0635 1.18649 59.944C-0.0653721 58.0597 0.0444914 56.0512 0.145024 54.2133C0.171571 53.728 0.197467 53.2546 0.197467 52.7985C0.13102 46.4974 0.0645729 42.5483 0 40.1609V100H1441V56.7611Z" fill="#F1ECE3"></path>
</svg>